<svg xmlns="http://www.w3.org/2000/svg" xmlns:xlink="http://www.w3.org/1999/xlink" width="500" zoomAndPan="magnify" viewBox="0 0 375 374.999991" height="500" preserveAspectRatio="xMidYMid meet" version="1.0"><defs><g/><clipPath id="25a2fd02b7"><path d="M 207.070312 123.523438 L 211.992188 123.523438 L 211.992188 262.234375 L 207.070312 262.234375 Z M 207.070312 123.523438 " clip-rule="nonzero"/></clipPath><clipPath id="5cc20ee693"><path d="M 162.214844 129.839844 L 167.125 129.839844 L 167.125 262.234375 L 162.214844 262.234375 Z M 162.214844 129.839844 " clip-rule="nonzero"/></clipPath><clipPath id="892e059788"><path d="M 157.035156 82 L 216.449219 82 L 216.449219 133.71875 L 157.035156 133.71875 Z M 157.035156 82 " clip-rule="nonzero"/></clipPath><clipPath id="f6eb37cdb7"><path d="M 130.460938 87.917969 L 254.25 87.917969 L 254.25 118.75 L 130.460938 118.75 Z M 130.460938 87.917969 " clip-rule="nonzero"/></clipPath><clipPath id="9b660f285e"><path d="M 73.285156 303.867188 L 102.347656 303.867188 L 102.347656 316.441406 L 73.285156 316.441406 Z M 73.285156 303.867188 " clip-rule="nonzero"/></clipPath><clipPath id="2f79caf03c"><path d="M 151 22 L 223.945312 22 L 223.945312 133.316406 L 151 133.316406 Z M 151 22 " clip-rule="nonzero"/></clipPath><clipPath id="5db7cbec9b"><path d="M 85.339844 110 L 100 110 L 100 125 L 85.339844 125 Z M 85.339844 110 " clip-rule="nonzero"/></clipPath><clipPath id="8f57ecd566"><path d="M 274 110.46875 L 288.105469 110.46875 L 288.105469 124.71875 L 274 124.71875 Z M 274 110.46875 " clip-rule="nonzero"/></clipPath><clipPath id="e90276a741"><path d="M 180 14.488281 L 195 14.488281 L 195 29 L 180 29 Z M 180 14.488281 " clip-rule="nonzero"/></clipPath><clipPath id="694e4c23c5"><path d="M 61 300 L 126 300 L 126 370 L 61 370 Z M 61 300 " clip-rule="nonzero"/></clipPath><clipPath id="bf28baf63c"><path d="M 80.101562 300.71875 L 125.726562 316.917969 L 106.925781 369.867188 L 61.304688 353.667969 Z M 80.101562 300.71875 " clip-rule="nonzero"/></clipPath></defs><rect x="-37.5" width="450" fill="#ffffff" y="-37.499999" height="449.999989" fill-opacity="1"/><rect x="-37.5" width="450" fill="#ffffff" y="-37.499999" height="449.999989" fill-opacity="1"/><g fill="#000000" fill-opacity="1"><g transform="translate(58.854906, 287.93863)"><g><path d="M 2.34375 0 C 9.269531 -1.90625 14.160156 -4.414062 17.015625 -7.53125 C 19.878906 -10.65625 21.832031 -15.941406 22.875 -23.390625 L 38.46875 -133.0625 C 38.8125 -135.132812 39.066406 -137.035156 39.234375 -138.765625 C 39.410156 -140.503906 39.5 -142.238281 39.5 -143.96875 C 39.5 -149.507812 38.328125 -153.796875 35.984375 -156.828125 C 33.648438 -159.859375 29.539062 -162.15625 23.65625 -163.71875 L 92.515625 -163.71875 L 128.890625 -58.734375 L 165.015625 -163.71875 L 234.140625 -163.71875 C 228.253906 -161.988281 224.140625 -159.5625 221.796875 -156.4375 C 219.460938 -153.320312 218.296875 -148.992188 218.296875 -143.453125 C 218.296875 -140.503906 218.554688 -137.039062 219.078125 -133.0625 L 234.921875 -23.390625 C 235.960938 -15.941406 237.867188 -10.65625 240.640625 -7.53125 C 243.410156 -4.414062 248.265625 -1.90625 255.203125 0 L 175.15625 0 C 182.082031 -1.382812 186.972656 -3.460938 189.828125 -6.234375 C 192.691406 -9.003906 194.125 -12.816406 194.125 -17.671875 C 194.125 -18.535156 194.078125 -19.441406 193.984375 -20.390625 C 193.898438 -21.347656 193.773438 -22.347656 193.609375 -23.390625 L 180.09375 -118.25 L 146.046875 -23.390625 L 111.21875 -23.390625 L 77.4375 -117.984375 L 63.921875 -23.390625 C 63.753906 -22.347656 63.625 -21.347656 63.53125 -20.390625 C 63.445312 -19.441406 63.40625 -18.535156 63.40625 -17.671875 C 63.40625 -12.816406 64.832031 -9.003906 67.6875 -6.234375 C 70.550781 -3.460938 75.363281 -1.382812 82.125 0 Z M 2.34375 0 "/></g></g></g><g fill="#000000" fill-opacity="1"><g transform="translate(80.813438, 355.257849)"><g><path d="M 3.53125 -7.46875 L 3.53125 -49.09375 C 3.53125 -49.09375 4.773438 -47.191406 7.265625 -43.390625 C 9.753906 -39.597656 14.269531 -35.867188 20.8125 -32.203125 C 27.363281 -28.546875 36.53125 -26.71875 48.3125 -26.71875 C 60.625 -26.71875 70.050781 -29.726562 76.59375 -35.75 C 83.144531 -41.769531 86.421875 -50.410156 86.421875 -61.671875 L 86.421875 -205.4375 C 86.421875 -215.394531 85.566406 -222.988281 83.859375 -228.21875 C 82.160156 -233.457031 79.019531 -237.453125 74.4375 -240.203125 C 69.851562 -242.953125 63.109375 -245.375 54.203125 -247.46875 L 158.703125 -247.46875 C 149.796875 -245.375 143.050781 -242.953125 138.46875 -240.203125 C 133.882812 -237.453125 130.738281 -233.457031 129.03125 -228.21875 C 127.332031 -222.988281 126.484375 -215.394531 126.484375 -205.4375 L 126.484375 -55 C 126.484375 -36.664062 120.785156 -22.328125 109.390625 -11.984375 C 98.003906 -1.640625 82.488281 3.53125 62.84375 3.53125 C 48.1875 3.53125 36.46875 2.613281 27.6875 0.78125 C 18.914062 -1.050781 12.695312 -2.882812 9.03125 -4.71875 C 5.363281 -6.550781 3.53125 -7.46875 3.53125 -7.46875 Z M 3.53125 -7.46875 "/></g></g></g><g clip-path="url(#25a2fd02b7)"><path fill="#ffffff" d="M 207.070312 123.523438 L 211.992188 123.523438 L 211.992188 262.242188 L 207.070312 262.242188 Z M 207.070312 123.523438 " fill-opacity="1" fill-rule="nonzero"/></g><g clip-path="url(#5cc20ee693)"><path fill="#ffffff" d="M 162.214844 129.839844 L 167.125 129.839844 L 167.125 262.242188 L 162.214844 262.242188 Z M 162.214844 129.839844 " fill-opacity="1" fill-rule="nonzero"/></g><g clip-path="url(#892e059788)"><path fill="#ffffff" d="M 157.035156 82 L 216.433594 82 L 216.433594 133.71875 L 157.035156 133.71875 Z M 157.035156 82 " fill-opacity="1" fill-rule="nonzero"/></g><g clip-path="url(#f6eb37cdb7)"><path fill="#ffffff" d="M 130.460938 87.917969 L 254.269531 87.917969 L 254.269531 118.75 L 130.460938 118.75 Z M 130.460938 87.917969 " fill-opacity="1" fill-rule="nonzero"/></g><path stroke-linecap="butt" transform="matrix(0.919062, 0.346041, -0.346041, 0.919062, 78.559269, 310.284793)" fill="none" stroke-linejoin="miter" d="M -0.000654381 1.998263 L 31.239605 2.00055 " stroke="#ffffff" stroke-width="4" stroke-opacity="1" stroke-miterlimit="4"/><g clip-path="url(#9b660f285e)"><path fill="#ffffff" d="M 73.285156 303.867188 L 102.367188 303.867188 L 102.367188 316.441406 L 73.285156 316.441406 Z M 73.285156 303.867188 " fill-opacity="1" fill-rule="nonzero"/></g><g clip-path="url(#2f79caf03c)"><path fill="#000000" d="M 202.644531 115.476562 L 171.875 115.476562 C 169.9375 106.304688 165.261719 97.867188 158.371094 91.332031 L 184.378906 42.667969 L 184.378906 90.320312 C 183.054688 91.238281 182.179688 92.765625 182.179688 94.5 C 182.179688 97.300781 184.457031 99.578125 187.257812 99.578125 C 190.0625 99.578125 192.335938 97.300781 192.335938 94.5 C 192.335938 92.765625 191.460938 91.238281 190.136719 90.320312 L 190.136719 42.667969 L 216.148438 91.332031 C 209.253906 97.867188 204.578125 106.304688 202.644531 115.476562 Z M 190.8125 31.722656 L 190.136719 31.722656 L 190.136719 24.957031 C 190.136719 23.367188 188.847656 22.082031 187.257812 22.082031 C 185.671875 22.082031 184.378906 23.367188 184.378906 24.957031 L 184.378906 31.722656 L 183.703125 31.722656 L 151.148438 92.632812 L 153.058594 94.285156 C 159.523438 99.890625 163.984375 107.320312 165.960938 115.476562 L 158.835938 115.476562 C 157.242188 115.476562 155.953125 116.769531 155.953125 118.355469 C 155.953125 119.945312 157.242188 121.234375 158.835938 121.234375 L 166.929688 121.234375 C 167.050781 122.507812 167.121094 123.792969 167.121094 125.082031 L 167.121094 133.585938 L 172.878906 133.585938 L 172.878906 125.082031 C 172.878906 123.792969 172.808594 122.511719 172.703125 121.234375 L 182.179688 121.234375 L 182.179688 133.585938 L 207.5625 133.585938 L 207.5625 121.539062 C 207.570312 121.4375 207.578125 121.335938 207.589844 121.234375 L 215.683594 121.234375 C 217.273438 121.234375 218.5625 119.945312 218.5625 118.355469 C 218.5625 116.769531 217.273438 115.476562 215.683594 115.476562 L 208.554688 115.476562 C 210.53125 107.320312 214.992188 99.890625 221.457031 94.285156 L 223.367188 92.632812 L 190.8125 31.722656 " fill-opacity="1" fill-rule="nonzero"/></g><path stroke-linecap="round" transform="matrix(0.0647694, 0, 0, -0.0647694, 85.338486, 133.584718)" fill="none" stroke-linejoin="round" d="M 103.995623 268.54218 C 103.995623 1075.97418 758.541447 1730.520005 1565.913137 1730.520005 C 2373.345137 1730.520005 3027.830651 1075.97418 3027.830651 268.54218 " stroke="#222222" stroke-width="28.346001" stroke-opacity="1" stroke-miterlimit="10"/><g clip-path="url(#5db7cbec9b)"><path fill="#000000" d="M 92.378906 110.617188 C 96.265625 110.617188 99.417969 113.769531 99.417969 117.660156 C 99.417969 121.546875 96.265625 124.699219 92.378906 124.699219 C 88.492188 124.699219 85.339844 121.546875 85.339844 117.660156 C 85.339844 113.769531 88.492188 110.617188 92.378906 110.617188 " fill-opacity="1" fill-rule="nonzero"/></g><g clip-path="url(#8f57ecd566)"><path fill="#000000" d="M 281.066406 110.617188 C 284.953125 110.617188 288.105469 113.769531 288.105469 117.660156 C 288.105469 121.546875 284.953125 124.699219 281.066406 124.699219 C 277.175781 124.699219 274.023438 121.546875 274.023438 117.660156 C 274.023438 113.769531 277.175781 110.617188 281.066406 110.617188 " fill-opacity="1" fill-rule="nonzero"/></g><path fill="#ffffff" d="M 180.96875 15.296875 L 193.550781 15.296875 L 193.550781 27.878906 L 180.96875 27.878906 L 180.96875 15.296875 " fill-opacity="1" fill-rule="nonzero"/><g clip-path="url(#e90276a741)"><path stroke-linecap="butt" transform="matrix(0.0647694, 0, 0, -0.0647694, 85.338486, 133.584718)" fill="none" stroke-linejoin="miter" d="M 1476.473217 1826.292489 L 1670.73214 1826.292489 L 1670.73214 1632.033565 L 1476.473217 1632.033565 Z M 1476.473217 1826.292489 " stroke="#100f0d" stroke-width="21.26" stroke-opacity="1" stroke-miterlimit="10"/></g><g clip-path="url(#694e4c23c5)"><g clip-path="url(#bf28baf63c)"><path fill="#ffffff" d="M 80.101562 300.71875 L 125.726562 316.917969 L 106.933594 369.847656 L 61.3125 353.648438 Z M 80.101562 300.71875 " fill-opacity="1" fill-rule="nonzero"/></g></g></svg>